<svg xmlns="http://www.w3.org/2000/svg" width="42" height="42" viewBox="0 0 42 42" fill="none">
    <path d="M10.5 33.25H15.75V22.75H26.25V33.25H31.5V17.5L21 9.625L10.5 17.5V33.25ZM10.5 36.75C9.5375 36.75 8.71325 36.407 8.02725 35.721C7.34125 35.035 6.99884 34.2113 7 33.25V17.5C7 16.9458 7.12425 16.4208 7.37275 15.925C7.62125 15.4292 7.96367 15.0208 8.4 14.7L18.9 6.825C19.2208 6.59167 19.5563 6.41667 19.9063 6.3C20.2563 6.18333 20.6208 6.125 21 6.125C21.3792 6.125 21.7438 6.18333 22.0938 6.3C22.4438 6.41667 22.7792 6.59167 23.1 6.825L33.6 14.7C34.0375 15.0208 34.3805 15.4292 34.629 15.925C34.8775 16.4208 35.0012 16.9458 35 17.5V33.25C35 34.2125 34.657 35.0368 33.971 35.7227C33.285 36.4088 32.4613 36.7512 31.5 36.75H22.75V26.25H19.25V36.75H10.5Z" fill="#C7C6C5"/>
</svg>