<svg xmlns="http://www.w3.org/2000/svg" width="30" height="31" viewBox="0 0 30 31" fill="none">
  <path d="M14.9345 15.3268C15.619 15.3268 16.2052 15.0764 16.6931 14.5758C17.1809 14.0751 17.4245 13.4739 17.4236 12.7723C17.4236 12.0698 17.1797 11.4683 16.6918 10.9676C16.204 10.4669 15.6182 10.217 14.9345 10.2179C14.25 10.2179 13.6638 10.4682 13.176 10.9689C12.6881 11.4695 12.4446 12.0707 12.4454 12.7723C12.4454 13.4748 12.6894 14.0764 13.1772 14.577C13.6651 15.0777 14.2509 15.3276 14.9345 15.3268ZM14.9345 28.0991C11.595 25.1827 9.10092 22.4742 7.45231 19.9733C5.8037 17.4725 4.97898 15.1573 4.97815 13.0278C4.97815 9.83468 5.97918 7.29087 7.98124 5.39631C9.9833 3.50175 12.3011 2.55447 14.9345 2.55447C17.5688 2.55447 19.887 3.50175 21.8891 5.39631C23.8911 7.29087 24.8917 9.83468 24.8909 13.0278C24.8909 15.1565 24.0662 17.4717 22.4167 19.9733C20.7673 22.475 18.2732 25.1836 14.9345 28.0991Z" fill="#544C4C"/>
</svg>