<svg width="157" height="80" viewBox="0 0 157 80" fill="none" xmlns="http://www.w3.org/2000/svg">
<g id="Group 314">
<g id="Vector">
<path d="M156.638 78.3191C156.638 57.5476 148.387 37.6268 133.699 22.9391C119.011 8.25145 99.0906 1.58669e-06 78.3191 1.8483e-08C57.5476 -1.54972e-06 37.6268 8.25145 22.9391 22.9391C8.25146 37.6268 3.24267e-06 57.5476 1.06263e-07 78.3191H19.5798C19.5798 62.7404 25.7684 47.7999 36.7841 36.7841C47.7999 25.7684 62.7405 19.5798 78.3191 19.5798C93.8977 19.5798 108.838 25.7684 119.854 36.7841C130.87 47.7999 137.058 62.7404 137.058 78.3191H156.638Z" fill="#00A642"/>
<path d="M40.3877 9.79835C28.1157 16.5918 17.8934 26.5564 10.7889 38.651C3.68441 50.7456 -0.0415561 64.5263 0.000349619 78.5531L19.58 78.4946C19.5486 67.9745 22.3431 57.639 27.6715 48.568C32.9998 39.4971 40.6666 32.0236 49.8706 26.9285L40.3877 9.79835Z" fill="#CEE963"/>
<path d="M117.479 10.4928C105.602 3.63597 92.1337 0.0177603 78.4202 6.52175e-05C64.7066 -0.0176299 51.2287 3.5658 39.3347 10.3919L49.0808 27.3737C58.0013 22.2541 68.1097 19.5665 78.3949 19.5798C88.6801 19.5931 98.7815 22.3067 107.689 27.4493L117.479 10.4928Z" fill="#75D63A"/>
</g>
<g id="Vector_2">
<path d="M134.466 45.0629L77.187 77.7871L73.6442 70.6063L134.466 45.0629Z" fill="#272525"/>
<path d="M78.6414 77.457C76.4864 78.5202 73.8775 77.6351 72.8143 75.4801C71.7511 73.3251 72.6361 70.7162 74.7911 69.653C76.9461 68.5898 79.555 69.4748 80.6183 71.6299C81.6815 73.7849 80.7964 76.3938 78.6414 77.457Z" fill="#272525"/>
</g>
</g>
</svg>
