<svg xmlns="http://www.w3.org/2000/svg" width="42" height="42" viewBox="0 0 42 42" fill="none">
    <path d="M16.1876 38.5L15.4876 32.9C15.1084 32.7542 14.7508 32.5792 14.4148 32.375C14.0788 32.1708 13.751 31.9521 13.4313 31.7188L8.2251 33.9063L3.4126 25.5938L7.91885 22.1813C7.88968 21.9771 7.8751 21.7799 7.8751 21.5898V20.4103C7.8751 20.2201 7.88968 20.0229 7.91885 19.8188L3.4126 16.4063L8.2251 8.09375L13.4313 10.2813C13.7522 10.0479 14.0876 9.82917 14.4376 9.625C14.7876 9.42083 15.1376 9.24583 15.4876 9.1L16.1876 3.5H25.8126L26.5126 9.1C26.8918 9.24583 27.2493 9.42083 27.5853 9.625C27.9213 9.82917 28.2492 10.0479 28.5689 10.2813L33.7751 8.09375L38.5876 16.4063L34.0813 19.8188C34.1105 20.0229 34.1251 20.2201 34.1251 20.4103V21.5898C34.1251 21.7799 34.0959 21.9771 34.0376 22.1813L38.5438 25.5938L33.7313 33.9063L28.5689 31.7188C28.248 31.9521 27.9126 32.1708 27.5626 32.375C27.2126 32.5792 26.8626 32.7542 26.5126 32.9L25.8126 38.5H16.1876ZM21.0876 27.125C22.7793 27.125 24.223 26.5271 25.4188 25.3313C26.6147 24.1354 27.2126 22.6917 27.2126 21C27.2126 19.3083 26.6147 17.8646 25.4188 16.6688C24.223 15.4729 22.7793 14.875 21.0876 14.875C19.3668 14.875 17.9154 15.4729 16.7336 16.6688C15.5518 17.8646 14.9614 19.3083 14.9626 21C14.9626 22.6917 15.5529 24.1354 16.7336 25.3313C17.9143 26.5271 19.3656 27.125 21.0876 27.125ZM21.0876 23.625C20.3584 23.625 19.7383 23.3695 19.2274 22.8585C18.7163 22.3475 18.4614 21.728 18.4626 21C18.4626 20.2708 18.7181 19.6508 19.2291 19.1398C19.7401 18.6288 20.3596 18.3738 21.0876 18.375C21.8168 18.375 22.4368 18.6305 22.9478 19.1415C23.4588 19.6525 23.7138 20.272 23.7126 21C23.7126 21.7292 23.4571 22.3493 22.9461 22.8603C22.4351 23.3713 21.8156 23.6262 21.0876 23.625ZM19.2501 35H22.7064L23.3188 30.3625C24.223 30.1292 25.0618 29.7862 25.8353 29.3335C26.6088 28.8808 27.3159 28.3343 27.9564 27.6938L32.2876 29.4875L33.9938 26.5125L30.2313 23.6688C30.3772 23.2604 30.4793 22.8305 30.5376 22.379C30.5959 21.9275 30.6251 21.4678 30.6251 21C30.6251 20.5333 30.5959 20.0743 30.5376 19.6228C30.4793 19.1713 30.3772 18.7408 30.2313 18.3313L33.9938 15.4875L32.2876 12.5125L27.9564 14.35C27.3147 13.6792 26.6077 13.118 25.8353 12.6665C25.063 12.215 24.2242 11.872 23.3188 11.6375L22.7501 7H19.2938L18.6813 11.6375C17.7772 11.8708 16.9389 12.2138 16.1666 12.6665C15.3943 13.1192 14.6867 13.6658 14.0438 14.3063L9.7126 12.5125L8.00635 15.4875L11.7688 18.2875C11.623 18.725 11.5209 19.1625 11.4626 19.6C11.4043 20.0375 11.3751 20.5042 11.3751 21C11.3751 21.4667 11.4043 21.9188 11.4626 22.3563C11.5209 22.7938 11.623 23.2313 11.7688 23.6688L8.00635 26.5125L9.7126 29.4875L14.0438 27.65C14.6855 28.3208 15.3931 28.8826 16.1666 29.3353C16.9401 29.7879 17.7783 30.1303 18.6813 30.3625L19.2501 35Z" fill="#C7C6C5"/>
</svg>